<?xml version="1.0" encoding="UTF-8" standalone="no"?>
<svg width="70px" height="35px" viewBox="0 0 410 196" version="1.1" xmlns="http://www.w3.org/2000/svg" xmlns:xlink="http://www.w3.org/1999/xlink">
    <!-- Generator: Sketch 43.2 (39069) - http://www.bohemiancoding.com/sketch -->
    <title>Group</title>
    <desc>Created with Sketch.</desc>
    <defs></defs>
    <g id="Page-1" stroke="none" stroke-width="1" fill="none" fill-rule="evenodd">
        <g id="Group" transform="translate(0.000000, -31.000000)">
            <rect id="Rectangle" fill="#FFFFFF" x="276" y="60" width="109" height="101"></rect>
            <path d="M258.206999,71.2069991 C258.373999,71.2959991 258.538999,71.3839991 258.669999,71.4539991 C258.558999,71.3939991 258.401999,71.3119991 258.206999,71.2069991 Z" id="Shape" fill="#000000" fill-rule="nonzero" transform="translate(258.706999, 71.706999) rotate(46.000000) translate(-258.706999, -71.706999) "></path>
            <path d="M258.206999,70.2069991 C258.338999,70.2769991 258.456999,70.3399991 258.566999,70.3979991 C258.426999,70.3219991 258.295999,70.2539991 258.206999,70.2069991 Z" id="Shape" fill="#000000" fill-rule="nonzero" transform="translate(258.706999, 70.706999) rotate(46.000000) translate(-258.706999, -70.706999) "></path>
            <path d="M258.206999,70.2069991 C258.254999,70.2319991 258.289999,70.2519991 258.333999,70.2749991 C258.256999,70.2329991 258.206999,70.2069991 258.206999,70.2069991 Z" id="Shape" fill="#000000" fill-rule="nonzero" transform="translate(258.706999, 70.706999) rotate(46.000000) translate(-258.706999, -70.706999) "></path>
            <path d="M258.206999,71.2069991 C258.630999,71.4339991 258.507999,71.3669991 258.206999,71.2069991 L258.206999,71.2069991 Z" id="Shape" fill="#000000" fill-rule="nonzero" transform="translate(258.706999, 71.706999) rotate(46.000000) translate(-258.706999, -71.706999) "></path>
            <path d="M297.626741,15.4082523 C255.793741,15.4082523 221.880741,49.3202523 221.880741,91.1532523 C221.880741,154.407252 297.357741,266.919252 297.626741,266.909252 C297.948741,266.897252 373.372741,153.407252 373.372741,91.1532523 C373.372741,49.3202523 339.461741,15.4082523 297.626741,15.4082523 Z M320.994353,62.7234191 L312.852659,80.1360151 L327.302077,122.018683 C330.555218,131.459004 319.120367,133.414657 314.95713,126.278605 L302.323049,102.66478 L288.662617,131.888684 C286.949912,135.306043 283.642123,142.139338 277.15749,139.115504 L271.069821,136.276777 C264.66542,133.47131 256.300412,129.267214 267.847702,125.302882 L273.609522,123.272722 L286.685302,95.1322419 L260.117353,100.706396 C251.975649,102.10456 246.12135,92.0879482 255.443651,88.5105486 L297.196338,72.5131666 L304.598844,56.5863854 C309.794452,45.4420022 330.977019,41.3155229 320.994353,62.7234191 Z" id="Shape" fill="#468ff4" fill-rule="nonzero" transform="translate(297.626741, 141.158752) rotate(47.000000) translate(-297.626741, -141.158752) "></path>
            <ellipse id="Oval" fill-opacity="0.01" fill="#D8D8D8" cx="3" cy="153.5" rx="3" ry="3.5"></ellipse>
        </g>
    </g>
</svg>
