<?xml version="1.0" encoding="UTF-8" standalone="no"?>
<svg width="70px" height="35px" viewBox="0 0 149 75" version="1.1" xmlns="http://www.w3.org/2000/svg" xmlns:xlink="http://www.w3.org/1999/xlink">
    <!-- Generator: Sketch 43.2 (39069) - http://www.bohemiancoding.com/sketch -->
    <title>Group 2</title>
    <desc>Created with Sketch.</desc>
    <defs></defs>
    <g id="Page-1" stroke="none" stroke-width="1" fill="none" fill-rule="evenodd">
        <g id="Group-2" transform="translate(0.000000, -1.000000)">
            <g id="noun_687055_cc" transform="translate(75.000000, 0.000000)" fill-rule="nonzero" fill="#EE5F5B">
                <g id="Group" transform="translate(0.000000, 0.637820)">
                    <path d="M68.000141,0.3623 C64.881333,0.313 61.12861,2.23387 58.000144,5.3623 C52.879043,9.97129 47.848144,15.13883 43.000133,20.36235 L3.000059,12.36237 L0.000133,18.36228 L30.000069,33.36235 L13.000112,53.3623 C9.101914,52.0801 3.000171,50.6213 3.000167,55.3623 C3.000102,56.2993 3.234568,57.2647 4.00013,58.3623 L16,70.3622 C17.097728,71.1277 18.06305,71.3622 19,71.3622 C23.740981,71.3622 22.282127,65.2605 21,61.3622 L41,44.3622 L56,74.3622 L62,71.3622 L54,31.36218 C59.22347,26.51418 64.39101,21.48328 69,16.36218 C72.128426,13.23371 74.049276,9.48099 74,6.36218 C73.97345,4.68204 73.443492,3.08226 72.36776,1.99455 C71.280057,0.91882 69.680277,0.3889 68.000141,0.3623 L68.000141,0.3623 Z" id="Shape"></path>
                </g>
            </g>
            <rect id="Rectangle" fill-opacity="0.01" fill="#D8D8D8" x="0" y="75" width="1" height="1"></rect>
        </g>
    </g>
</svg>
