<?xml version="1.0" encoding="UTF-8" standalone="no"?>
<svg width="15px" height="15px" viewBox="0 0 66 90" version="1.1" xmlns="http://www.w3.org/2000/svg" xmlns:xlink="http://www.w3.org/1999/xlink">
    <!-- Generator: Sketch 40.2 (33826) - http://www.bohemiancoding.com/sketch -->
    <title>bleu</title>
    <desc>Created with Sketch.</desc>
    <defs></defs>
    <g id="Page-1" stroke="none" stroke-width="1" fill="none" fill-rule="evenodd">
        <g id="bleu" fill="#0185B5">
            <g id="Group">
                <path d="M33,53.8 C44.8,53.8 54.3,44.2 54.3,32.5 C54.3,20.8 44.8,11.2 33,11.2 C21.2,11.2 11.7,20.8 11.7,32.5 C11.7,44.2 21.3,53.8 33,53.8 L33,53.8 Z M38.1791244,21.7602633 L39.3791244,22.9602633 C39.4791244,23.0602633 39.5791244,23.2602633 39.4791244,23.3602633 L37.8791244,35.4602633 L43.1791244,41.8602633 C43.2791244,41.9602633 43.2791244,42.0602633 43.2791244,42.1602633 L43.3791244,42.8602633 C43.3791244,43.1602633 43.1791244,43.3602633 42.8791244,43.3602633 L42.1791244,43.2602633 C42.0791244,43.2602633 41.9791244,43.2602633 41.8791244,43.1602633 L35.4791244,37.8602633 L23.3791244,39.4602633 C23.2791244,39.4602633 23.0791244,39.4602633 22.9791244,39.3602633 L21.7791244,38.1602633 C21.5791244,37.9602633 21.5791244,37.5602633 21.8791244,37.3602633 L30.9791244,33.3602633 L26.2791244,27.5602633 L22.7791244,28.2602633 C22.5791244,28.2602633 22.4791244,28.2602633 22.3791244,28.1602633 L21.9791244,27.8602633 C21.7791244,27.6602633 21.7791244,27.2602633 22.0791244,27.0602633 L25.3791244,25.4602633 L26.9791244,22.1602633 C27.0791244,21.8602633 27.4791244,21.7602633 27.7791244,22.0602633 L28.0791244,22.3602633 C28.1791244,22.4602633 28.2791244,22.6602633 28.1791244,22.7602633 L27.4791244,26.2602633 L33.2791244,30.9602633 L37.2791244,21.8602633 C37.4791244,21.5602633 37.8791244,21.4602633 38.1791244,21.7602633 L38.1791244,21.7602633 Z" id="Shape"></path>
                <path d="M33,89.7 C33,89.7 53.9,59.2 59.7,50.6 C63.2,45.5 65.2,39.3 65.2,32.6 C65.2,14.8 50.8,0.3 33,0.3 C15.2,0.3 0.8,14.8 0.8,32.6 C0.8,39.3 2.8,45.5 6.3,50.6 C12.1,59.2 33,89.7 33,89.7 L33,89.7 Z M33,8.2 C46.4,8.2 57.3,19.1 57.3,32.5 C57.3,45.9 46.4,56.8 33,56.8 C19.6,56.8 8.7,45.9 8.7,32.5 C8.7,19.1 19.6,8.2 33,8.2 L33,8.2 Z" id="Shape"></path>
            </g>
        </g>
    </g>
</svg>
