<svg xmlns="http://www.w3.org/2000/svg" xmlns:xlink="http://www.w3.org/1999/xlink" version="1.1" x="0px" y="0px" viewBox="0 0 100 125" enable-background="new 0 0 100 100" xml:space="preserve"><g><path fill="none" d="M49.15,26.903c-6.373,0-11.558,5.186-11.558,11.56c0,6.376,5.185,11.562,11.558,11.562   c6.374,0,11.559-5.186,11.559-11.562C60.709,32.089,55.524,26.903,49.15,26.903z"/><path fill="none" d="M52.075,8.83h-4.21c-8.842,0.464-17.414,5.45-22.937,13.345c-5.008,7.159-6.551,15.574-4.231,23.087   c2.625,7.478,6.649,14.982,12.637,23.544c1.647,2.356,3.448,4.807,5.674,7.713c1.495,1.955,3.107,4.017,5.227,6.685l2.021,2.559   c1.262,1.595,2.523,3.188,3.768,4.785c1.725-2.265,3.5-4.528,5.225-6.73l1.129-1.44c1.552-1.978,3.106-3.962,4.638-5.962   c2.264-2.956,4.058-5.384,5.647-7.644c6.306-8.98,10.43-16.785,12.973-24.556c1.875-7.533,0.029-15.805-5.07-22.707   C69.038,14.027,60.634,9.289,52.075,8.83z M49.15,53.856c-8.484,0-15.387-6.905-15.387-15.392c0-8.486,6.903-15.39,15.387-15.39   c8.486,0,15.389,6.904,15.389,15.39C64.539,46.951,57.636,53.856,49.15,53.856z"/><path d="M77.647,19.235c-6.212-8.41-15.716-13.731-25.422-14.233C52.192,5.001,52.159,5,52.126,5h-4.31   c-0.033,0-0.065,0.001-0.097,0.003C37.688,5.511,27.995,11.109,21.79,19.98c-5.69,8.135-7.422,17.761-4.728,26.481   c2.768,7.887,6.941,15.685,13.134,24.54c1.678,2.402,3.512,4.896,5.771,7.846c1.509,1.974,3.134,4.052,5.264,6.735l2.022,2.559   c1.613,2.037,3.222,4.071,4.8,6.115C48.416,94.725,48.976,95,49.569,95h0.938c0.602,0,1.169-0.283,1.531-0.764   c2.024-2.693,4.161-5.418,6.226-8.054l1.129-1.439c1.561-1.992,3.124-3.985,4.664-5.997c2.295-2.997,4.12-5.466,5.74-7.77   c6.549-9.325,10.839-17.471,13.501-25.634c0.014-0.041,0.026-0.083,0.036-0.126C85.515,36.551,83.443,27.082,77.647,19.235z    M79.636,44.218c-2.543,7.771-6.668,15.576-12.973,24.556c-1.59,2.26-3.384,4.688-5.647,7.644c-1.532,2-3.086,3.983-4.638,5.962   l-1.129,1.44c-1.725,2.202-3.5,4.466-5.225,6.73c-1.245-1.597-2.506-3.19-3.768-4.785l-2.021-2.559   c-2.12-2.669-3.732-4.73-5.227-6.685c-2.225-2.906-4.027-5.357-5.674-7.713c-5.988-8.563-10.011-16.066-12.637-23.544   c-2.32-7.513-0.777-15.928,4.231-23.087C30.451,14.28,39.023,9.294,47.865,8.83h4.21c8.558,0.459,16.963,5.197,22.491,12.681   C79.665,28.413,81.51,36.685,79.636,44.218z"/><path d="M49.15,23.074c-8.484,0-15.387,6.904-15.387,15.39c0,8.487,6.903,15.392,15.387,15.392c8.486,0,15.389-6.905,15.389-15.392   C64.539,29.978,57.636,23.074,49.15,23.074z M49.15,50.026c-6.373,0-11.558-5.186-11.558-11.562c0-6.375,5.185-11.56,11.558-11.56   c6.374,0,11.559,5.186,11.559,11.56C60.709,44.84,55.524,50.026,49.15,50.026z"/></g></svg>
