<?xml version="1.0" encoding="UTF-8" standalone="no"?>
<svg width="20px" height="31px" viewBox="0 0 20 31" version="1.1" xmlns="http://www.w3.org/2000/svg" xmlns:xlink="http://www.w3.org/1999/xlink">
    <!-- Generator: Sketch 43.2 (39069) - http://www.bohemiancoding.com/sketch -->
    <title>orange-star copy</title>
    <desc>Created with Sketch.</desc>
    <defs></defs>
    <g id="Page-1" stroke="none" stroke-width="1" fill="none" fill-rule="evenodd">
        <g id="orange-star-copy" fill-rule="nonzero" fill="#E67E22">
            <path d="M9.99956522,0.0111944444 C4.61391304,0.0111944444 0.247826087,4.33483333 0.247826087,9.668125 C0.247826087,13.3696111 3.76434783,17.2695833 5.15347826,20.0746528 C6.51217391,22.1736111 9.9673913,30.8669583 9.9673913,30.8669583 C9.9673913,30.8669583 13.5778261,21.9045139 14.8278261,20.0208333 C17.2826087,15.5103333 19.7521739,13.4057778 19.7521739,9.668125 C19.7521739,4.33483333 15.3856522,0.0111944444 9.99956522,0.0111944444 Z M12.9108696,9.96951389 L13.5978261,13.9370833 L10,12.0637361 L6.40217391,13.9370833 L7.08913043,9.96951389 L4.17869565,7.15970833 L8.20086957,6.58104167 L10,2.97169444 L11.7986957,6.58104167 L15.8213043,7.15970833 L12.9108696,9.96951389 Z" id="Shape"></path>
        </g>
    </g>
</svg>
