<?xml version="1.0" encoding="UTF-8" standalone="no"?>
<svg width="40px" height="44px" viewBox="0 0 10 11" version="1.1" xmlns="http://www.w3.org/2000/svg" xmlns:xlink="http://www.w3.org/1999/xlink">
    <!-- Generator: Sketch 43.2 (39069) - http://www.bohemiancoding.com/sketch -->
    <title>noun_685947_cc</title>
    <desc>Created with Sketch.</desc>
    <defs></defs>
    <g id="Page-1" stroke="none" stroke-width="1" fill="none" fill-rule="evenodd" opacity="0.59322528">
        <g id="noun_685947_cc" fill-rule="nonzero" fill="#E67E22">
            <ellipse id="Oval" cx="5.006" cy="4.53371111" rx="1.06857143" ry="1"></ellipse>
            <path d="M7.32685714,0.0882444444 L2.68485714,0.0882444444 C1.25085714,0.0882444444 0.0882857143,1.08276667 0.0882857143,2.30963333 L0.0882857143,6.281 C0.0882857143,7.50786667 1.25085714,8.50238889 2.68485714,8.50238889 L3.47928571,8.50238889 L5.006,10.9118778 L6.53257143,8.50238889 L7.327,8.50238889 C8.76114286,8.50238889 9.92357143,7.50786667 9.92357143,6.281 L9.92357143,2.30951111 C9.92328571,1.08264444 8.761,0.0882444444 7.32685714,0.0882444444 Z M7.66671429,5.74358889 C7.66671429,5.96212222 7.45971429,6.13934444 7.20414286,6.13934444 L2.80785714,6.13934444 C2.55242857,6.13934444 2.34514286,5.96212222 2.34514286,5.74358889 L2.34514286,3.35768889 C2.34514286,3.13891111 2.55242857,2.96168889 2.80785714,2.96168889 L2.96557143,2.96168889 L3.13185714,2.96168889 L3.13185714,2.36426667 C3.13185714,2.23287778 3.25614286,2.12666667 3.40942857,2.12666667 L4.51357143,2.12666667 C4.667,2.12666667 4.79114286,2.23287778 4.79114286,2.36426667 L4.79114286,2.96168889 L5.11342857,2.96168889 L7.20414286,2.96168889 C7.45971429,2.96168889 7.66671429,3.13891111 7.66671429,3.35768889 L7.66671429,5.74358889 Z" id="Shape"></path>
        </g>
    </g>
</svg>
