<?xml version="1.0" encoding="UTF-8" standalone="no"?>
<svg width="15px" height="15px" viewBox="0 0 66 90" version="1.1" xmlns="http://www.w3.org/2000/svg" xmlns:xlink="http://www.w3.org/1999/xlink">
    <!-- Generator: Sketch 40.2 (33826) - http://www.bohemiancoding.com/sketch -->
    <title>orange.svg</title>
    <desc>Created with Sketch.</desc>
    <defs></defs>
    <g id="Page-1" stroke="none" stroke-width="1" fill="none" fill-rule="evenodd">
        <g id="orange.svg" fill="#E67E22">
            <g id="Group">
                <path d="M33,53.8 C44.8,53.8 54.3,44.2 54.3,32.5 C54.3,20.8 44.8,11.2 33,11.2 C21.2,11.2 11.7,20.8 11.7,32.5 C11.7,44.2 21.3,53.8 33,53.8 L33,53.8 Z M21.8,26.8 L23,25.6 C23.1,25.5 23.3,25.4 23.4,25.5 L35.5,27.1 L41.9,21.8 C42,21.7 42.1,21.7 42.2,21.7 L42.9,21.6 C43.2,21.6 43.4,21.8 43.4,22.1 L43.3,22.8 C43.3,22.9 43.3,23 43.2,23.1 L37.9,29.5 L39.5,41.6 C39.5,41.7 39.5,41.9 39.4,42 L38.2,43.2 C38,43.4 37.6,43.4 37.4,43.1 L33.4,34 L27.6,38.7 L28.3,42.2 C28.3,42.4 28.3,42.5 28.2,42.6 L27.9,43 C27.7,43.2 27.3,43.2 27.1,42.9 L25.5,39.6 L22.2,38 C21.9,37.9 21.8,37.5 22.1,37.2 L22.4,36.9 C22.5,36.8 22.7,36.7 22.8,36.8 L26.3,37.5 L31,31.7 L21.9,27.7 C21.6,27.5 21.5,27.1 21.8,26.8 L21.8,26.8 Z" id="Shape"></path>
                <path d="M33,89.7 C33,89.7 53.9,59.2 59.7,50.6 C63.2,45.5 65.2,39.3 65.2,32.6 C65.2,14.8 50.8,0.3 33,0.3 C15.2,0.3 0.8,14.8 0.8,32.6 C0.8,39.3 2.8,45.5 6.3,50.6 C12.1,59.2 33,89.7 33,89.7 L33,89.7 Z M33,8.2 C46.4,8.2 57.3,19.1 57.3,32.5 C57.3,45.9 46.4,56.8 33,56.8 C19.6,56.8 8.7,45.9 8.7,32.5 C8.7,19.1 19.6,8.2 33,8.2 L33,8.2 Z" id="Shape"></path>
            </g>
        </g>
    </g>
</svg>
