<svg xmlns="http://www.w3.org/2000/svg" xmlns:xlink="http://www.w3.org/1999/xlink" version="1.1" x="0px" y="0px" viewBox="0 0 100 125" enable-background="new 0 0 100 100" xml:space="preserve" fill="#E67E22"><path d="M49.999,12.026c-12.387,0-22.429,10.042-22.429,22.429c0,8.597,8.088,17.655,11.283,24.17  c3.125,4.875,11.072,25.066,11.072,25.066S58.229,62.875,61.104,58.5C66.75,48.024,72.43,43.136,72.43,34.455  C72.43,22.068,62.387,12.026,49.999,12.026z M56.695,35.155l1.58,9.215L50,40.019l-8.275,4.351l1.58-9.215l-6.694-6.526l9.251-1.344  L50,18.902l4.137,8.383l9.252,1.344L56.695,35.155z"/></svg>
