<svg xmlns="http://www.w3.org/2000/svg" xmlns:xlink="http://www.w3.org/1999/xlink" version="1.1" x="0px" y="0px" viewBox="0 0 100 125" enable-background="new 0 0 100 100" xml:space="preserve"><path fill-rule="evenodd" clip-rule="evenodd" d="M65.406,61.916l12.676-12.675c-4.672-4.583-11.679-5.612-18.178-3.32  L42.973,28.988c1.772-5.816,0.705-11.957-3.419-16.08c-0.003-0.003-0.006-0.006-0.009-0.009  c-8.882,8.882-17.764,17.764-26.646,26.646c0.004,0.003,0.006,0.006,0.01,0.009c4.123,4.124,10.265,5.191,16.08,3.418l16.932,16.933  c-2.292,6.498-1.263,13.506,3.32,18.177l12.675-12.675L83.61,87.101h3.171l0.319-0.319v-3.172L65.406,61.916z"/></svg>
